{"title":"Break My Fall 2011 DVDRiP AC3 XViD - REBORN","uid":6763899,"size":1505017198,"categoryP":"video","categoryS":"movies","magnet":"?xt=urn:btih:2270e8cbc10e6071ba359f7657bb149fc9cd148f&amp;dn=Break+My+Fall+2011+DVDRiP+AC3+XViD+-+REBORN&amp;tr=udp%3A%2F%2Ftracker.openbittorrent.com%3A80&amp;tr=udp%3A%2F%2Fopen.demonii.com%3A1337&amp;tr=udp%3A%2F%2Ftracker.coppersurfer.tk%3A6969&amp;tr=udp%3A%2F%2Fexodus.desync.com%3A6969","seeders":0,"leechers":0,"uploader":"sceneline","files":104,"time":1319297428,"description":"- &lt;a href=&quot;\nhttp://www.Speed.Cd&quot; rel=&quot;nofollow&quot; target=&quot;_NEW&quot;&gt;\nhttp://www.Speed.Cd&lt;/a&gt;      fast  and The Hottest Private Tracker on the net\n\nPlease Seed back to make the speed Faster!!!\n\n------------------nfo--------------------------\n-Break My Fall 2011 DVDRiP AC3 XViD - REBORN\n\nSOURCES THANKED:\nCan't tell ya :P\n &lt;a href=&quot;\nhttp://www.imdb.com/title/tt1619622/&quot; rel=&quot;nofollow&quot; target=&quot;_NEW&quot;&gt;\nhttp://www.imdb.com/title/tt1619622/&lt;/a&gt;\n\nVideo\nID                               : 0\nFormat                           : MPEG-4 Visual\nFormat profile                   : Advanced Simple@L5\nFormat settings, BVOP            : 2\nFormat settings, QPel            : No\nFormat settings, GMC             : No warppoints\nFormat settings, Matrix          : Default (MPEG)\nMuxing mode                      : Packed bitstream\nCodec ID                         : XVID\nCodec ID/Hint                    : XviD\nDuration                         : 1h 41mn\nBit rate                         : 1 483 Kbps\nWidth                            : 720 pixels\nHeight                           : 384 pixels\nDisplay aspect ratio             : 1.875\nFrame rate                       : 25.000 fps\nColor space                      : YUV\nChroma subsampling               : 4:2:0\nBit depth                        : 8 bits\nScan type                        : Progressive\nCompression mode                 : Lossy\nBits/(Pixel*Frame)               : 0.215\nStream size                      : 1.06 GiB (76%)\nWriting library                  : XviD 64\n\nAudio\nID                               : 1\nFormat                           : AC-3\nFormat/Info                      : Audio Coding 3\nMode extension                   : CM (complete main)\nCodec ID                         : 2000\nDuration                         : 1h 41mn\nBit rate mode                    : Constant\nBit rate                         : 448 Kbps\nChannel(s)                       : 6 channels\nChannel positions                : Front: L C R, Side: L R, LFE\nSampling rate                    : 48.0 KHz\nBit depth                        : 16 bits\nCompression mode                 : Lossy\nStream size                      : 326 MiB (23%)\nAlignment                        : Aligned on interleaves\nInterleave, duration             : 40 ms (1.00 video frame)\nInterleave, preload duration     : 512 ms\n\n\nWORKDONE:\n\nA simple rip of a dvd really using an avs script and vdub .....The dvd was poor really\ncontained alot of noise so had to used a HQ noise reduction,whilst trying to maintain\nsome sharpness still.\nOther than that it was straight forward and the audio is untouched.\n\n[IMG]http://i.imgur.com/NK1Iw.png[/IMG]\n[IMG]http://i.imgur.com/kyofp.png[/IMG]\n[IMG]http://i.imgur.com/AqcQx.png[/IMG]\n[IMG]http://i.imgur.com/VhJ89.png[/IMG]","torrent":{"xt":"urn:btih:2270e8cbc10e6071ba359f7657bb149fc9cd148f","amp;dn":"Break+My+Fall+2011+DVDRiP+AC3+XViD+-+REBORN","amp;tr":["udp%3A%2F%2Ftracker.openbittorrent.com%3A80","udp%3A%2F%2Fopen.demonii.com%3A1337","udp%3A%2F%2Ftracker.coppersurfer.tk%3A6969","udp%3A%2F%2Fexodus.desync.com%3A6969"],"infoHash":"2270e8cbc10e6071ba359f7657bb149fc9cd148f","infoHashBuffer":{"type":"Buffer","data":[34,112,232,203,193,14,96,113,186,53,159,118,87,187,20,159,201,205,20,143]},"announce":[],"urlList":[]}}